<svg xmlns="http://www.w3.org/2000/svg" xml:space="preserve" viewBox="0 0 512 512"><path d="M200 232H56c-17.7 0-32-14.3-32-32V56c0-17.7 14.3-32 32-32h144c17.7 0 32 14.3 32 32v144c0 17.7-14.3 32-32 32" style="fill:#00ffa3"/><path d="M456 232H312c-17.7 0-32-14.3-32-32V56c0-17.7 14.3-32 32-32h144c17.7 0 32 14.3 32 32v144c0 17.7-14.3 32-32 32" style="fill:red"/><path d="M456 488H312c-17.7 0-32-14.3-32-32V312c0-17.7 14.3-32 32-32h144c17.7 0 32 14.3 32 32v144c0 17.7-14.3 32-32 32" style="fill:#9146ff"/><path d="M200 488H56c-17.7 0-32-14.3-32-32V312c0-17.7 14.3-32 32-32h144c17.7 0 32 14.3 32 32v144c0 17.7-14.3 32-32 32" style="fill:#0545b1"/></svg>