<svg width="420" height="93" viewBox="0 0 420 93" fill="none" xmlns="http://www.w3.org/2000/svg">
<path d="M175.516 74.8002C172.582 74.8002 170.182 73.9202 168.316 72.1602C166.502 70.3468 165.596 68.0535 165.596 65.2802C165.596 61.9735 166.689 59.3068 168.876 57.2802C171.062 55.2002 173.756 54.1602 176.956 54.1602C179.889 54.1602 182.262 55.0402 184.076 56.8002C185.889 58.5602 186.796 60.8535 186.796 63.6802C186.796 66.9868 185.702 69.6802 183.516 71.7602C181.329 73.7868 178.662 74.8002 175.516 74.8002Z" fill="white"/>
<path d="M151.902 14.6406H169.982L158.143 74.0006H140.062L151.902 14.6406Z" fill="white"/>
<path d="M140.842 30.2402L132.122 74.0002H115.082L115.962 69.6002C114.096 71.3602 112.042 72.6669 109.802 73.5202C107.562 74.3736 105.296 74.8002 103.002 74.8002C98.3091 74.8002 94.5491 73.5202 91.7224 70.9602C88.8958 68.4002 87.4824 64.7202 87.4824 59.9202C87.4824 58.1069 87.6691 56.2669 88.0424 54.4002L92.8424 30.2402H110.922L106.522 52.2402C106.309 53.5202 106.202 54.4269 106.202 54.9602C106.202 58.0536 107.669 59.6002 110.602 59.6002C114.762 59.6002 117.402 56.8269 118.522 51.2802L122.762 30.2402H140.842Z" fill="white"/>
<path d="M66.6 29.4414C71.08 29.4414 74.7067 30.7481 77.48 33.3614C80.3067 35.9214 81.72 39.6014 81.72 44.4014C81.72 46.2147 81.5333 48.0281 81.16 49.8414L76.36 74.0014H58.28L62.68 52.1614C62.8933 51.2547 63 50.3481 63 49.4414C63 47.8414 62.6533 46.6414 61.96 45.8414C61.2667 45.0414 60.3067 44.6414 59.08 44.6414C55.4 44.6414 53.0533 47.2014 52.04 52.3214L47.72 74.0014H29.64L34.04 52.1614C34.2533 51.2547 34.36 50.3481 34.36 49.4414C34.36 47.8414 34.0133 46.6414 33.32 45.8414C32.6267 45.0414 31.6667 44.6414 30.44 44.6414C26.8133 44.6414 24.44 47.3081 23.32 52.6414L19.08 74.0014H1L9.72 30.2414H26.76L25.88 34.4814C27.6933 32.7747 29.6667 31.5214 31.8 30.7214C33.9333 29.8681 36.12 29.4414 38.36 29.4414C41.08 29.4414 43.5867 30.0281 45.88 31.2014C48.1733 32.3747 49.96 34.1081 51.24 36.4014C53.16 34.1614 55.4267 32.4547 58.04 31.2814C60.6533 30.0547 63.5067 29.4414 66.6 29.4414Z" fill="white"/>
<rect x="197.4" width="222" height="93" rx="16" fill="#FC3D3A"/>
<path d="M397.074 59.4728V73.0008H352.842V19.8008H396.086V33.3288H370.474V39.5608H392.97V52.4808H370.474V59.4728H397.074Z" fill="white"/>
<path d="M351.058 19.8008L328.562 73.0008H310.93L288.434 19.8008H307.738L320.43 50.8848L333.426 19.8008H351.058Z" fill="white"/>
<path d="M267.639 19.8008H285.575V73.0008H267.639V19.8008Z" fill="white"/>
<path d="M220.732 19.8008H238.668V59.0928H262.684V73.0008H220.732V19.8008Z" fill="white"/>
</svg>
