<svg width="60" height="60" viewBox="0 0 60 60" fill="none" xmlns="http://www.w3.org/2000/svg">
<rect width="60" height="60" rx="12" fill="#0545B1"/>
<g clip-path="url(#clip0_882_33930)">
<path d="M39.3566 18.3333C35.7105 18.3333 32.434 19.8361 30.1802 22.2235C30.0841 22.3265 29.917 22.3265 29.8209 22.2235C27.566 19.8361 24.2906 18.3333 20.6445 18.3333C13.8454 18.3333 8.33331 23.5571 8.33331 30.0006C8.33331 36.444 13.8454 41.6678 20.6445 41.6678C24.2906 41.6678 27.5671 40.165 29.8209 37.7776C29.917 37.6746 30.0841 37.6746 30.1802 37.7776C32.434 40.165 35.7105 41.6678 39.3566 41.6678C46.1557 41.6678 51.6678 36.444 51.6678 30.0006C51.6678 23.5571 46.1557 18.3333 39.3566 18.3333ZM39.3566 36.0667C37.3866 36.0667 35.7414 35.1668 34.7312 34.1509C34.4097 33.8267 34.0116 33.3822 33.5723 33.0049C33.3629 32.8249 33.1547 32.6645 32.9556 32.5192C32.1319 31.963 31.1103 31.6323 30.0006 31.6323C28.8908 31.6323 27.8692 31.963 27.0455 32.5192C26.8453 32.6634 26.6382 32.8249 26.4288 33.0049C25.9895 33.3822 25.5914 33.8267 25.2699 34.1509C24.2608 35.1668 22.6145 36.0667 20.6445 36.0667C20.5941 36.0667 20.5449 36.0646 20.4946 36.0635C20.4099 36.0613 20.3253 36.0591 20.2406 36.0537C20.1823 36.0505 20.1251 36.045 20.0679 36.0407C20.0336 36.0385 19.9992 36.0353 19.9661 36.032C16.749 35.7111 14.2424 33.1328 14.2424 29.9995V30.0255V29.9745V30.0006C14.2424 26.8683 16.749 24.29 19.9649 23.968C20.0004 23.9647 20.037 23.9626 20.0736 23.9582C20.1285 23.9539 20.1846 23.9496 20.2395 23.9463C20.3241 23.942 20.4088 23.9398 20.4958 23.9366C20.5449 23.9366 20.5941 23.9333 20.6433 23.9333C22.6134 23.9333 24.2585 24.8332 25.2687 25.8491C25.5902 26.1733 25.9884 26.6178 26.4277 26.9951C26.637 27.1751 26.8453 27.3356 27.0443 27.4808C27.868 28.037 28.8897 28.3677 29.9994 28.3677C31.1091 28.3677 32.1308 28.037 32.9545 27.4808C33.1547 27.3366 33.3618 27.1751 33.5711 26.9951C34.0105 26.6178 34.4086 26.1733 34.7301 25.8491C35.7391 24.8332 37.3854 23.9333 39.3555 23.9333C39.4047 23.9333 39.4527 23.9355 39.5019 23.9366C39.5877 23.9387 39.6747 23.9409 39.7593 23.9463C39.8131 23.9496 39.868 23.9528 39.9218 23.9582C39.9595 23.9604 39.9984 23.9637 40.0362 23.968C43.1286 24.2781 45.5643 26.6742 45.745 29.6449C45.745 29.6644 45.7473 29.684 45.7485 29.7024C45.7507 29.7577 45.7519 29.813 45.753 29.8683C45.7542 29.9507 45.7553 30.0331 45.753 30.1155C45.7519 30.1773 45.7519 30.2402 45.7485 30.302C45.7485 30.315 45.7462 30.328 45.7462 30.341C45.5723 33.3172 43.1343 35.7219 40.0362 36.032C39.9973 36.0353 39.9584 36.0385 39.9195 36.0418C39.8669 36.0461 39.8131 36.0505 39.7605 36.0537C39.6758 36.058 39.5877 36.0602 39.5019 36.0635C39.4527 36.0635 39.4047 36.0667 39.3555 36.0667V36.0689L39.3566 36.0667Z" fill="white"/>
</g>
<defs>
<clipPath id="clip0_882_33930">
<rect width="43.3333" height="23.3333" fill="white" transform="translate(8.33331 18.3333)"/>
</clipPath>
</defs>
</svg>
